<?xml version="1.0" encoding="utf-8"?>
<!-- Generator: Adobe Illustrator 16.0.0, SVG Export Plug-In . SVG Version: 6.00 Build 0)  -->
<!DOCTYPE svg PUBLIC "-//W3C//DTD SVG 1.1//EN" "http://www.w3.org/Graphics/SVG/1.1/DTD/svg11.dtd">
<svg version="1.1" id="Layer_1" xmlns="http://www.w3.org/2000/svg" xmlns:xlink="http://www.w3.org/1999/xlink" x="0px" y="0px"
	 width="226.77px" height="226.77px" viewBox="0 0 226.77 226.77" enable-background="new 0 0 226.77 226.77" xml:space="preserve">
<g>
	<g>
		<path fill="#003F61" d="M137.747,152.187c0.044,0,0.092-0.006,0.135-0.006h-0.269
			C137.659,152.181,137.705,152.187,137.747,152.187z"/>
		<path fill="#003F61" d="M169.618,39.363H97.447h-1.71c-2.715,0.413-4.799,2.75-4.799,5.583c0,2.819,2.068,5.152,4.771,5.578h1.767
			h67.399v5.395c0,0.019,0,5.671,0,5.671c0,0.028,0.003,0.051,0.003,0.085c0,0.031-0.003,0.058-0.003,0.088v11.54H62.486
			c-3.647,0-6.604,2.956-6.604,6.603v99.959c0,3.542,2.87,6.41,6.412,6.41h32.573h1.386c2.995-0.322,5.373-2.703,5.686-5.702v-1.339
			v-27.054h35.675h0.269c3.47-0.07,6.269-2.899,6.279-6.385v-0.019c0-0.01,0-0.013,0-0.025v-31.596V113.4
			c-0.184-3.146-2.631-5.684-5.74-6h-1.309h-35.174v-5.73v-0.56c-0.065-1.294-0.565-2.462-1.362-3.382
			c-1.029-1.189-2.537-1.961-4.234-1.961c-1.702,0-3.207,0.772-4.239,1.961c-0.725,0.841-1.197,1.89-1.326,3.052v1.221v9.451v1.476
			c0.339,2.955,2.687,5.301,5.642,5.632h1.449h35.132v22.465H97.851h-1.387c-3.009,0.32-5.39,2.719-5.688,5.733v1.275v27.089H67.039
			V84.687V84.46h0.227h101.653h1.443c3.061-0.343,5.464-2.837,5.669-5.938v-0.869v-27.13v-0.008c0-1.692,0-3.302,0-4.743
			C176.031,42.231,173.159,39.363,169.618,39.363z"/>
	</g>
	<circle fill="#F7A600" cx="61.886" cy="44.985" r="11.192"/>
</g>
</svg>
