<?xml version="1.0" encoding="utf-8"?>
<!-- Generator: Adobe Illustrator 16.0.0, SVG Export Plug-In . SVG Version: 6.00 Build 0)  -->
<!DOCTYPE svg PUBLIC "-//W3C//DTD SVG 1.1//EN" "http://www.w3.org/Graphics/SVG/1.1/DTD/svg11.dtd">
<svg version="1.1" id="Layer_1" xmlns="http://www.w3.org/2000/svg" xmlns:xlink="http://www.w3.org/1999/xlink" x="0px" y="0px"
	 width="283.46px" height="70.87px" viewBox="0 0 283.46 70.87" enable-background="new 0 0 283.46 70.87" xml:space="preserve">
<g>
	<g>
		<g>
			<path fill-rule="evenodd" clip-rule="evenodd" fill="#003F61" d="M80.775,39.484c2.48,3.1,5.01,6.266,7.546,9.43
				c1.286,1.604,1.409,2.83,0.359,3.799c-1.229,1.137-3.528,1.08-4.694-0.26c-1.533-1.76-2.95-3.621-4.41-5.445
				c-1.58-1.974-3.219-3.906-4.707-5.947c-1.016-1.394-2.271-1.734-3.941-1.404c-0.014,0.311-0.042,0.648-0.043,0.985
				c-0.003,3.363,0.002,6.726-0.004,10.09c-0.001,1.362-0.445,2.144-1.498,2.515c-1.254,0.443-2.539,0.447-3.467-0.59
				c-0.43-0.48-0.627-1.326-0.633-2.008c-0.045-6.374-0.027-12.748-0.026-19.122c0.001-1.313-0.024-2.626,0.012-3.939
				c0.093-3.398,1.976-5.962,5.335-6.393c4.05-0.519,8.188-0.734,12.195,0.421c3.553,1.024,5.609,3.771,5.943,7.556
				c0.365,4.125-1.211,7.434-4.443,9.047C83.181,38.777,81.934,39.076,80.775,39.484z M70.893,34.448
				c2.897,0,5.678,0.095,8.449-0.029c2.357-0.106,3.672-1.617,3.804-4c0.124-2.228-1.052-4.044-3.239-4.268
				c-2.594-0.265-5.232-0.15-7.849-0.11c-0.767,0.013-1.148,0.677-1.157,1.42C70.876,29.758,70.893,32.056,70.893,34.448z"/>
			<path fill-rule="evenodd" clip-rule="evenodd" fill="#003F61" d="M52.435,36.994c-0.001-4.448,0.011-8.896-0.01-13.344
				c-0.005-1.056,0.137-2.009,1.21-2.493c1.175-0.531,2.428-0.613,3.455,0.2c0.499,0.395,0.925,1.219,0.929,1.852
				c0.059,9.28,0.047,18.56,0.032,27.839c-0.002,1.533-1.113,2.453-2.828,2.45c-1.702-0.003-2.771-0.919-2.779-2.489
				C52.421,46.338,52.436,41.666,52.435,36.994z"/>
			<path fill-rule="evenodd" clip-rule="evenodd" fill="#003F61" d="M93.982,49.29c0.887-2.188,1.929-2.694,4.207-1.894
				c2.982,1.049,6.021,1.514,9.145,0.911c1.759-0.339,3.146-1.234,3.621-3.134c0.435-1.735,0.008-3.232-1.575-4.029
				c-1.577-0.797-3.331-1.24-5.004-1.848c-1.886-0.684-3.853-1.205-5.63-2.103c-3.305-1.668-4.787-4.529-4.506-8.204
				c0.28-3.648,2.288-6.071,5.648-7.41c2.629-1.048,5.385-1.123,8.135-0.844c1.769,0.179,3.527,0.572,5.256,1.008
				c1.715,0.433,2.316,1.565,1.883,3.167c-0.418,1.535-1.604,2.181-3.273,1.823c-1.623-0.347-3.24-0.84-4.88-0.938
				c-1.565-0.094-3.183,0.113-4.729,0.422c-1.312,0.261-2.137,1.23-2.339,2.617c-0.22,1.5,0.308,2.733,1.657,3.364
				c1.49,0.696,3.088,1.17,4.65,1.707c1.747,0.601,3.56,1.042,5.252,1.767c3.046,1.307,4.926,3.578,5.174,7.006
				c0.274,3.803-1.099,6.813-4.303,8.936c-2.684,1.777-5.701,2.15-8.823,2.014c-2.505-0.109-4.94-0.582-7.327-1.367
				c-1.083-0.357-1.885-0.9-2.238-2.009C93.982,49.931,93.982,49.61,93.982,49.29z"/>
			<path fill-rule="evenodd" clip-rule="evenodd" fill="#003F61" d="M135.217,26.02c0,0.462,0,0.84,0,1.217
				c0,7.75,0.002,15.501-0.001,23.252c-0.001,2.347-1.517,3.488-3.786,2.866c-1.311-0.359-1.852-1.115-1.854-2.639
				c-0.003-7.814-0.002-15.629-0.002-23.444c0-0.378,0-0.757,0-1.253c-0.701,0-1.331,0.001-1.961,0
				c-1.922-0.003-3.845,0.031-5.764-0.022c-1.425-0.04-2.41-1.108-2.413-2.479c-0.003-1.421,0.899-2.409,2.333-2.545
				c0.254-0.024,0.512-0.032,0.768-0.032c6.598-0.001,13.195-0.005,19.793,0.001c1.715,0.001,2.688,0.629,2.963,1.87
				c0.388,1.74-0.689,3.16-2.493,3.194c-2.146,0.041-4.292,0.011-6.437,0.012C136.017,26.02,135.672,26.02,135.217,26.02z"/>
			<path fill="#003F61" d="M45.459,20.895H34.235c-0.036,0-0.069,0-0.105,0c-1.578,0.057-2.843,1.088-2.843,2.681v0.256
				c0,1.596-1.209,2.2-2.792,2.251h-0.23c-0.032,0-0.062,0.009-0.095,0.01c-1.546,0.05-2.785,1.285-2.842,2.829
				c-0.002,0.038-0.012,0.073-0.012,0.11v1.914c0,0.035,0.009,0.069,0.011,0.104c-0.001,2.467-0.001,4.932-0.001,7.399
				c0,4.129-0.034,8.26,0.032,12.389c0.011,0.708,0.264,1.585,0.729,2.079c0.924,0.98,2.187,0.982,3.413,0.499
				c1.148-0.452,1.51-1.372,1.503-2.55c-0.022-3.516-0.01-7.033-0.006-10.551c0-0.34,0.027-0.682,0.046-1.092
				c0.476,0,0.858,0,1.24,0c4-0.003,3.541,0.014,7.541-0.018c1.52-0.012,2.435-1.02,2.435-2.535c0-1.523-0.909-2.526-2.423-2.551
				c-2.418-0.039-0.378-0.017-2.798-0.018c-1.963-0.001-3.928,0-5.948,0c-0.038-0.176-0.063-0.265-0.075-0.343
				c-0.002-0.02-0.01-0.043-0.01-0.063c-0.005-1.936-0.013-3.871-0.006-5.807c0.002-0.754,0.126-1.227,0.447-1.512
				c0.108-0.097,0.239-0.172,0.397-0.229c0.275-0.098,0.62-0.145,1.072-0.146C35.136,26.001,37.36,26,39.584,26
				c1.938,0.001,3.876,0.003,5.813-0.002c1.732-0.005,2.719-0.96,2.716-2.574C48.113,21.866,47.155,20.905,45.459,20.895z"/>
		</g>
		<g>
			<path fill-rule="evenodd" clip-rule="evenodd" fill="#003F61" d="M148.977,49.154c0.887-2.188,1.929-2.693,4.207-1.893
				c2.982,1.049,6.021,1.514,9.145,0.91c1.76-0.339,3.146-1.234,3.621-3.133c0.435-1.736,0.008-3.232-1.574-4.03
				c-1.578-0.796-3.332-1.24-5.005-1.847c-1.885-0.684-3.853-1.205-5.63-2.104c-3.305-1.668-4.787-4.528-4.506-8.203
				c0.28-3.648,2.288-6.071,5.648-7.41c2.629-1.048,5.385-1.123,8.135-0.844c1.769,0.18,3.527,0.573,5.256,1.008
				c1.715,0.433,2.316,1.565,1.883,3.167c-0.418,1.535-1.603,2.181-3.273,1.823c-1.622-0.347-3.24-0.84-4.88-0.938
				c-1.565-0.094-3.183,0.113-4.729,0.422c-1.312,0.261-2.137,1.229-2.339,2.617c-0.219,1.5,0.308,2.733,1.657,3.364
				c1.49,0.696,3.088,1.17,4.65,1.707c1.748,0.601,3.56,1.042,5.252,1.767c3.046,1.307,4.926,3.578,5.174,7.006
				c0.274,3.803-1.099,6.812-4.303,8.936c-2.684,1.777-5.701,2.15-8.822,2.014c-2.506-0.109-4.941-0.582-7.328-1.368
				c-1.083-0.356-1.885-0.899-2.238-2.009C148.977,49.795,148.977,49.475,148.977,49.154z"/>
			<path fill-rule="evenodd" clip-rule="evenodd" fill="#003F61" d="M258.561,31.66c-0.047,0.08-0.127,0.155-0.139,0.241
				c-0.74,5.058-4.605,7.149-8.691,7.418c-2.809,0.185-5.635,0.087-8.453,0.118c-0.156,0.002-0.314,0.024-0.562,0.045
				c-0.016,0.361-0.045,0.699-0.045,1.037c-0.002,3.363,0.002,6.727-0.002,10.09c-0.002,1.36-0.449,2.144-1.504,2.514
				c-1.253,0.441-2.539,0.445-3.464-0.595c-0.431-0.481-0.626-1.327-0.63-2.011c-0.045-6.502-0.028-13.004-0.026-19.507
				c0.001-1.345-0.03-2.693,0.035-4.035c0.157-3.229,2.405-5.832,5.632-6.012c3.375-0.188,6.795-0.169,10.158,0.152
				c3.764,0.358,6.92,2.778,7.555,7.224c0.014,0.086,0.09,0.164,0.137,0.244C258.561,29.609,258.561,30.634,258.561,31.66z
				 M240.688,34.333c2.855,0,5.572,0.071,8.285-0.021c2.42-0.083,3.783-1.537,3.955-3.958c0.16-2.224-0.998-4.071-3.182-4.303
				c-2.621-0.278-5.293-0.174-7.938-0.096c-0.385,0.012-1.049,0.784-1.07,1.228C240.631,29.536,240.688,31.896,240.688,34.333z"/>
			<path fill-rule="evenodd" clip-rule="evenodd" fill="#003F61" d="M210.678,33.924c1.971,0,3.791,0,5.613,0
				c2.498,0,4.997-0.019,7.496,0.011c1.576,0.019,2.498,0.996,2.496,2.543c-0.001,1.54-0.93,2.508-2.521,2.518
				c-3.972,0.021-7.943,0.008-11.916,0.01c-0.347,0-0.693,0-1.103,0c0,3.046,0,6.01,0,9.123c0.361,0,0.731,0,1.102,0
				c4.42,0,8.842-0.018,13.262,0.01c2.041,0.013,3.136,1.543,2.514,3.41c-0.325,0.972-1.083,1.617-2.146,1.621
				c-5.222,0.021-10.444,0.075-15.664-0.034c-2.877-0.061-4.707-1.984-4.73-4.872c-0.056-7.08-0.066-14.16,0.017-21.238
				c0.04-3.49,2.499-6.029,5.99-6.133c4.737-0.141,9.479-0.087,14.222-0.054c1.511,0.011,2.391,1.068,2.357,2.569
				c-0.034,1.486-0.965,2.456-2.488,2.465c-4.164,0.025-8.329,0.009-12.493,0.012c-1.6,0.001-2.001,0.394-2.005,1.965
				C210.674,29.831,210.678,31.813,210.678,33.924z"/>
			<path fill-rule="evenodd" clip-rule="evenodd" fill="#003F61" d="M190.211,25.884c0,0.462,0,0.84,0,1.217
				c0,7.75,0.002,15.502-0.001,23.252c-0.001,2.347-1.517,3.488-3.786,2.867c-1.311-0.359-1.852-1.115-1.854-2.639
				c-0.003-7.814-0.002-15.63-0.002-23.445c0-0.378,0-0.757,0-1.253c-0.701,0-1.331,0.001-1.961,0
				c-1.922-0.003-3.845,0.031-5.764-0.022c-1.424-0.04-2.409-1.108-2.412-2.479c-0.004-1.421,0.898-2.409,2.332-2.545
				c0.254-0.024,0.512-0.032,0.768-0.032c6.598-0.001,13.195-0.005,19.793,0.001c1.715,0.001,2.688,0.629,2.963,1.87
				c0.388,1.74-0.689,3.16-2.492,3.194c-2.146,0.041-4.293,0.011-6.438,0.012C191.012,25.884,190.666,25.884,190.211,25.884z"/>
		</g>
	</g>
	<circle fill="#F7A600" cx="25.168" cy="20.238" r="3.54"/>
</g>
</svg>
